<svg xmlns:mydata="http://www.w3.org/2000/svg" mydata:contrastcolor="ffffff" mydata:template="SingleColorHex1" mydata:presentation="2.5" mydata:layouttype="undefined" mydata:specialfontid="undefined" mydata:id1="104" mydata:id2="104" mydata:companyname="LCS Projects" mydata:companytagline="" version="1.1" xmlns="http://www.w3.org/2000/svg" xmlns:xlink="http://www.w3.org/1999/xlink" viewBox="0 0 550 470">
	<g fill="#ffffff" fill-rule="none" stroke="none" stroke-width="1" stroke-linecap="butt" stroke-linejoin="miter" stroke-miterlimit="10" stroke-dasharray="" stroke-dashoffset="0" font-family="none" font-weight="none" font-size="none" text-anchor="none" style="mix-blend-mode: normal">
		<g data-paper-data="{&quot;isGlobalGroup&quot;:true,&quot;bounds&quot;:{&quot;x&quot;:145.99999999999997,&quot;y&quot;:105.99999999999997,&quot;width&quot;:258,&quot;height&quot;:258}}">
			<g data-paper-data="{&quot;isIcon&quot;:&quot;true&quot;,&quot;iconType&quot;:&quot;icon&quot;,&quot;rawIconId&quot;:&quot;177042&quot;,&quot;selectedEffects&quot;:{&quot;container&quot;:&quot;circle_simple_filled&quot;,&quot;transformation&quot;:&quot;&quot;,&quot;pattern&quot;:&quot;&quot;},&quot;combineTerms&quot;:&quot;code&quot;,&quot;isDetailed&quot;:false,&quot;fillRule&quot;:&quot;nonzero&quot;,&quot;blockLetter&quot;:&quot;O&quot;,&quot;blockLetterId&quot;:0,&quot;relativeBoundsIconToContainer&quot;:{&quot;top&quot;:4.7171483809495515e-17,&quot;left&quot;:-1.415144514284865e-16},&quot;widthRatioIconToContainer&quot;:0.5613502065859616,&quot;heightRatioIconToContainer&quot;:0.699826525847802,&quot;bounds&quot;:{&quot;x&quot;:199.27842301298128,&quot;y&quot;:159.27842301298128,&quot;width&quot;:151.4426558074065,&quot;height&quot;:151.4426558074065},&quot;iconStyle&quot;:&quot;standalone&quot;,&quot;suitableAsStandaloneIcon&quot;:true}" fill-rule="nonzero">
				<path d="M199.27842,234.99975c0,-41.81973 33.9016,-75.72133 75.72133,-75.72133c41.81973,0 75.72133,33.9016 75.72133,75.72133c0,41.81973 -33.9016,75.72133 -75.72133,75.72133c-41.81973,0 -75.72133,-33.9016 -75.72133,-75.72133zM289.31881,182.00796h-56.82524v105.98359h85.01237v-78.02196zM287.06384,212.22455v-27.96163l27.96163,27.96163zM250.53333,224.62689c1.12748,-1.57848 2.70596,-2.25497 4.73544,-2.25497c2.02948,0 3.83345,0.67649 4.73544,2.25497c1.12748,1.57848 1.57848,3.38246 1.57848,5.86292c0,2.48046 -0.45099,4.50994 -1.57848,5.86292c-1.12748,1.57848 -2.70596,2.25497 -4.73544,2.25497c-2.02948,0 -3.83345,-0.67649 -4.73544,-2.25497c-1.12748,-1.57848 -1.57848,-3.38246 -1.57848,-5.86292c-0.2255,-2.48046 0.45099,-4.50994 1.57848,-5.86292zM283.90688,236.35273c-1.12748,1.57848 -2.70596,2.25497 -4.73544,2.25497c-2.02948,0 -3.83345,-0.67649 -4.73544,-2.25497c-1.12748,-1.57848 -1.57848,-3.38246 -1.57848,-5.86292c0,-2.48046 0.45099,-4.50994 1.57848,-5.86292c1.12748,-1.57848 2.70596,-2.25497 4.73544,-2.25497c2.02948,0 3.83345,0.67649 4.73544,2.25497c1.12748,1.57848 1.57848,3.38246 1.57848,5.86292c0,2.48046 -0.45099,4.50994 -1.57848,5.86292zM299.24068,236.35273c-1.12748,1.57848 -2.70596,2.25497 -4.73544,2.25497c-2.02948,0 -3.83345,-0.67649 -4.73544,-2.25497c-1.12748,-1.57848 -1.57848,-3.38246 -1.57848,-5.86292c0,-2.48046 0.45099,-4.50994 1.57848,-5.86292c1.12748,-1.57848 2.70596,-2.25497 4.73544,-2.25497c2.02948,0 3.83345,0.67649 4.73544,2.25497c1.12748,1.57848 1.57848,3.38246 1.57848,5.86292c0.2255,2.48046 -0.45099,4.50994 -1.57848,5.86292zM239.70947,222.82291h5.63742v15.55929h-2.48046v-13.30432h-3.15696zM263.61215,222.82291h5.63742v15.55929h-2.48046v-13.30432h-3.15696zM308.48605,238.38221h-2.48046v-13.30432h-3.15696v-2.25497h5.63742zM255.26876,236.35273c1.35298,0 2.25497,-0.45099 2.93146,-1.57848c0.67649,-1.12748 0.90199,-2.48046 0.90199,-4.28444c0,-1.80398 -0.2255,-3.15696 -0.90199,-4.28444c-0.67649,-1.12748 -1.57848,-1.57848 -2.93146,-1.57848c-1.35298,0 -2.25497,0.45099 -2.93146,1.57848c-0.67649,1.12748 -0.90199,2.48046 -0.90199,4.28444c0,1.80398 0.2255,3.15696 0.90199,4.28444c0.67649,1.12748 1.57848,1.57848 2.93146,1.57848zM279.17144,224.62689c-1.35298,0 -2.25497,0.45099 -2.93146,1.57848c-0.67649,1.12748 -0.90199,2.48046 -0.90199,4.28444c0,1.80398 0.2255,3.15696 0.90199,4.28444c0.67649,1.12748 1.57848,1.57848 2.93146,1.57848c1.35298,0 2.25497,-0.45099 2.93146,-1.57848c0.67649,-1.12748 0.90199,-2.48046 0.90199,-4.28444c0,-1.80398 -0.2255,-3.15696 -0.90199,-4.28444c-0.67649,-1.12748 -1.57848,-1.57848 -2.93146,-1.57848zM294.50524,224.62689c-1.35298,0 -2.25497,0.45099 -2.93146,1.57848c-0.45099,1.12748 -0.90199,2.48046 -0.90199,4.28444c0,1.80398 0.2255,3.15696 0.90199,4.28444c0.67649,1.12748 1.57848,1.57848 2.93146,1.57848c1.35298,0 2.25497,-0.45099 2.93146,-1.57848c0.67649,-1.12748 0.90199,-2.48046 0.90199,-4.28444c0,-1.80398 -0.2255,-3.15696 -0.90199,-4.28444c-0.67649,-1.12748 -1.57848,-1.57848 -2.93146,-1.57848zM251.43531,258.45144c-1.12748,1.57848 -2.70596,2.25497 -4.73544,2.25497c-2.02948,0 -3.83345,-0.67649 -4.73544,-2.25497c-1.12748,-1.57848 -1.57848,-3.38246 -1.57848,-5.86292c0,-2.48046 0.45099,-4.50994 1.57848,-5.86292c1.12748,-1.57848 2.70596,-2.25497 4.73544,-2.25497c2.02948,0 3.83345,0.67649 4.73544,2.25497c1.12748,1.57848 1.57848,3.38246 1.57848,5.86292c0,2.25497 -0.45099,4.28444 -1.57848,5.86292zM275.338,258.45144c-1.12748,1.57848 -2.70596,2.25497 -4.73544,2.25497c-2.02948,0 -3.83345,-0.67649 -4.73544,-2.25497c-1.12748,-1.57848 -1.57848,-3.38246 -1.57848,-5.86292c0,-2.48046 0.45099,-4.50994 1.57848,-5.86292c1.12748,-1.57848 2.70596,-2.25497 4.73544,-2.25497c2.02948,0 3.83345,0.67649 4.73544,2.25497c1.12748,1.57848 1.57848,3.38246 1.57848,5.86292c0,2.25497 -0.45099,4.28444 -1.57848,5.86292zM299.24068,258.45144c-1.12748,1.57848 -2.70596,2.25497 -4.73544,2.25497c-2.02948,0 -3.83345,-0.67649 -4.73544,-2.25497c-1.12748,-1.57848 -1.57848,-3.38246 -1.57848,-5.86292c0,-2.48046 0.45099,-4.50994 1.57848,-5.86292c1.12748,-1.57848 2.70596,-2.25497 4.73544,-2.25497c2.02948,0 3.83345,0.67649 4.73544,2.25497c1.12748,1.57848 1.57848,3.38246 1.57848,5.86292c0.2255,2.25497 -0.45099,4.28444 -1.57848,5.86292zM255.04327,244.69612h5.63742v15.55929h-2.48046v-13.30432h-3.15696zM284.58338,260.48092h-2.48046v-13.30432h-3.15696v-2.25497h5.63742zM308.48605,260.48092h-2.48046v-13.30432h-3.15696v-2.25497h5.63742zM246.69987,246.72559c-1.35298,0 -2.25497,0.45099 -2.93146,1.57848c-0.67649,1.12748 -0.90199,2.48046 -0.90199,4.28444c0,1.80398 0.2255,3.15696 0.90199,4.28444c0.67649,1.12748 1.57848,1.57848 2.93146,1.57848c1.35298,0 2.25497,-0.45099 2.93146,-1.57848c0.67649,-1.12748 0.90199,-2.48046 0.90199,-4.28444c0,-1.80398 -0.2255,-3.15696 -0.90199,-4.28444c-0.67649,-1.12748 -1.57848,-1.57848 -2.93146,-1.57848zM270.60256,246.72559c-1.35298,0 -2.25497,0.45099 -2.93146,1.57848c-0.67649,1.12748 -0.90199,2.48046 -0.90199,4.28444c0,1.80398 0.2255,3.15696 0.90199,4.28444c0.67649,1.12748 1.57848,1.57848 2.93146,1.57848c1.35298,0 2.25497,-0.45099 2.93146,-1.57848c0.67649,-1.12748 0.90199,-2.48046 0.90199,-4.28444c0,-1.80398 -0.2255,-3.15696 -0.90199,-4.28444c-0.67649,-1.12748 -1.57848,-1.57848 -2.93146,-1.57848zM294.50524,246.72559c-1.35298,0 -2.25497,0.45099 -2.93146,1.57848c-0.45099,0.90199 -0.90199,2.48046 -0.90199,4.05894c0,1.80398 0.2255,3.15696 0.90199,4.28444c0.67649,1.12748 1.57848,1.57848 2.93146,1.57848c1.35298,0 2.25497,-0.45099 2.93146,-1.57848c0.67649,-1.12748 0.90199,-2.48046 0.90199,-4.28444c0,-1.80398 -0.2255,-3.15696 -0.90199,-4.28444c-0.67649,-0.90199 -1.57848,-1.35298 -2.93146,-1.35298zM251.43531,279.64816c-1.12748,1.57848 -2.70596,2.25497 -4.73544,2.25497c-2.02948,0 -3.83345,-0.67649 -4.73544,-2.25497c-1.12748,-1.57848 -1.57848,-3.38246 -1.57848,-5.86292c0,-2.48046 0.45099,-4.50994 1.57848,-5.86292c1.12748,-1.57848 2.70596,-2.25497 4.73544,-2.25497c2.02948,0 3.83345,0.67649 4.73544,2.25497c1.12748,1.57848 1.57848,3.38246 1.57848,5.86292c0,2.25497 -0.45099,4.28444 -1.57848,5.86292zM266.99461,279.64816c-1.12748,1.57848 -2.70596,2.25497 -4.73544,2.25497c-2.02948,0 -3.83345,-0.67649 -4.73544,-2.25497c-1.12748,-1.57848 -1.57848,-3.38246 -1.57848,-5.86292c0,-2.48046 0.45099,-4.50994 1.57848,-5.86292c1.12748,-1.57848 2.70596,-2.25497 4.73544,-2.25497c2.02948,0 3.83345,0.67649 4.73544,2.25497c1.12748,1.57848 1.57848,3.38246 1.57848,5.86292c0,2.25497 -0.67649,4.28444 -1.57848,5.86292zM299.24068,279.64816c-1.12748,1.57848 -2.70596,2.25497 -4.73544,2.25497c-2.02948,0 -3.83345,-0.67649 -4.73544,-2.25497c-1.12748,-1.57848 -1.57848,-3.38246 -1.57848,-5.86292c0,-2.48046 0.45099,-4.50994 1.57848,-5.86292c1.12748,-1.57848 2.70596,-2.25497 4.73544,-2.25497c2.02948,0 3.83345,0.67649 4.73544,2.25497c1.12748,1.57848 1.57848,3.38246 1.57848,5.86292c0.2255,2.25497 -0.45099,4.28444 -1.57848,5.86292zM276.01448,281.67763h-2.25497v-13.30432h-3.38246v-2.25497h5.63742zM284.58338,281.67763h-2.48046v-13.30432h-3.15696v-2.25497h5.63742zM308.48605,281.67763h-2.48046v-13.30432h-3.15696v-2.25497h5.63742zM246.69987,267.92231c-1.35298,0 -2.25497,0.45099 -2.93146,1.57848c-0.67649,1.12748 -0.90199,2.48046 -0.90199,4.28444c0,1.80398 0.2255,3.15696 0.90199,4.28444c0.67649,1.12748 1.57848,1.57848 2.93146,1.57848c1.35298,0 2.25497,-0.45099 2.93146,-1.57848c0.67649,-1.12748 0.90199,-2.48046 0.90199,-4.28444c0,-1.80398 -0.2255,-3.15696 -0.90199,-4.28444c-0.67649,-1.12748 -1.57848,-1.57848 -2.93146,-1.57848zM262.03367,267.92231c-1.35298,0 -2.25497,0.45099 -2.93146,1.57848c-0.67649,1.12748 -0.90199,2.48046 -0.90199,4.28444c0,1.80398 0.2255,3.15696 0.90199,4.28444c0.67649,1.12748 1.57848,1.57848 2.93146,1.57848c1.35298,0 2.25497,-0.45099 2.93146,-1.57848c0.67649,-1.12748 0.90199,-2.48046 0.90199,-4.28444c0,-1.80398 -0.2255,-3.15696 -0.90199,-4.28444c-0.67649,-1.12748 -1.57848,-1.57848 -2.93146,-1.57848zM294.50524,267.92231c-1.35298,0 -2.25497,0.45099 -2.93146,1.57848c-0.67649,1.12748 -0.90199,2.48046 -0.90199,4.28444c0,1.80398 0.2255,3.15696 0.90199,4.28444c0.67649,1.12748 1.57848,1.57848 2.93146,1.57848c1.35298,0 2.25497,-0.45099 2.93146,-1.57848c0.67649,-1.12748 0.90199,-2.48046 0.90199,-4.28444c0,-1.80398 -0.2255,-3.15696 -0.90199,-4.28444c-0.67649,-1.12748 -1.57848,-1.57848 -2.93146,-1.57848z" data-paper-data="{&quot;isPathIcon&quot;:true}"></path>
			</g>
			<g data-paper-data="{&quot;isPrimaryText&quot;:true}" fill-rule="nonzero">
				<path d="M183.4018,205.27742l2.43904,0.64205l-2.74258,10.41863l-20.11458,-5.29491l0.76095,-2.89072l17.67554,4.65287z" data-paper-data="{&quot;glyphName&quot;:&quot;L&quot;,&quot;glyphIndex&quot;:0,&quot;firstGlyphOfWord&quot;:true,&quot;word&quot;:1}"></path>
				<path d="M194.96387,185.73089c-0.19884,0.78587 -0.4153,1.51574 -0.64941,2.18961c-0.2341,0.67387 -0.52382,1.34216 -0.86915,2.00489c-0.56596,1.08613 -1.25262,2.03329 -2.05998,2.84148c-0.80736,0.80819 -1.77087,1.37702 -2.89054,1.70647c-1.11967,0.32945 -2.40192,0.38693 -3.84675,0.17243c-1.44483,-0.2145 -3.09689,-0.80617 -4.9562,-1.77502c-1.73044,-0.9017 -3.10484,-1.85779 -4.12318,-2.86829c-1.01834,-1.01049 -1.73444,-2.05075 -2.14828,-3.12076c-0.41384,-1.07002 -0.54884,-2.15858 -0.40498,-3.2657c0.14386,-1.10712 0.50836,-2.22215 1.0935,-3.34509c0.34533,-0.66272 0.75069,-1.30587 1.21606,-1.92945c0.46538,-0.62358 0.99596,-1.25999 1.59176,-1.90924l1.81201,1.5762c-0.41664,0.48512 -0.81046,0.99384 -1.18147,1.52614c-0.371,0.53231 -0.68121,1.03778 -0.93062,1.51641c-0.40289,0.77318 -0.66194,1.55108 -0.77716,2.33371c-0.11522,0.78263 -0.0214,1.55715 0.28147,2.32356c0.30286,0.76641 0.84037,1.52049 1.61252,2.26226c0.77215,0.74176 1.84856,1.47236 3.22924,2.1918c1.45431,0.75781 2.73923,1.23425 3.85478,1.42931c1.11554,0.19506 2.09535,0.17895 2.93941,-0.04833c0.84407,-0.22729 1.56581,-0.63535 2.16524,-1.22419c0.59943,-0.58884 1.11017,-1.28826 1.53225,-2.09825c0.259,-0.49704 0.49038,-1.00847 0.69416,-1.53429c0.20377,-0.52582 0.38952,-1.08444 0.55725,-1.67585z" data-paper-data="{&quot;glyphName&quot;:&quot;C&quot;,&quot;glyphIndex&quot;:1,&quot;word&quot;:1}"></path>
				<path d="M205.08984,164.49993c0.65239,0.57837 1.14325,1.2216 1.47258,1.92968c0.32933,0.70808 0.50269,1.45128 0.52009,2.22959c0.0174,0.77831 -0.1337,1.56676 -0.45329,2.36533c-0.31959,0.79858 -0.80989,1.57066 -1.47088,2.31625c-0.35804,0.40386 -0.75315,0.8026 -1.18532,1.19621c-0.43218,0.39361 -0.873,0.76569 -1.32248,1.11623c-0.44947,0.35054 -0.89771,0.66056 -1.3447,0.93008c-0.44699,0.26951 -0.84967,0.48122 -1.20804,0.63511l-1.44341,-2.36155c0.86997,-0.44935 1.71056,-0.95943 2.52176,-1.53024c0.8112,-0.57081 1.43025,-1.09698 1.85714,-1.5785c0.86755,-0.97858 1.28522,-1.91908 1.25301,-2.82149c-0.03221,-0.90241 -0.35122,-1.62215 -0.957,-2.1592c-0.38833,-0.34427 -0.817,-0.56479 -1.28602,-0.66158c-0.46902,-0.09678 -0.96983,-0.11078 -1.50242,-0.04199c-0.53259,0.06879 -1.10517,0.20616 -1.71774,0.41211c-0.61257,0.20595 -1.2488,0.4464 -1.90869,0.72137c-0.64612,0.25943 -1.28623,0.49644 -1.92034,0.71104c-0.63411,0.21459 -1.2735,0.34128 -1.91818,0.38005c-0.64468,0.03877 -1.29341,-0.05088 -1.94619,-0.26896c-0.65278,-0.21808 -1.32089,-0.63007 -2.00435,-1.23598c-0.62132,-0.55083 -1.06602,-1.16007 -1.3341,-1.82772c-0.26808,-0.66765 -0.38708,-1.36265 -0.357,-2.085c0.03008,-0.72235 0.20368,-1.4423 0.52079,-2.15985c0.31711,-0.71755 0.75797,-1.39476 1.32257,-2.03161c0.57837,-0.65239 1.21543,-1.24581 1.91117,-1.78026c0.69575,-0.53446 1.46396,-1.02548 2.30462,-1.47307l1.32691,2.25827c-0.6546,0.36288 -1.29835,0.78392 -1.93125,1.26313c-0.6329,0.47921 -1.18345,0.98287 -1.65165,1.511c-0.70231,0.79219 -1.05685,1.55978 -1.06363,2.30278c-0.00678,0.743 0.30825,1.3968 0.94511,1.9614c0.31066,0.27541 0.66255,0.44174 1.05567,0.49897c0.39312,0.05723 0.82279,0.04977 1.28901,-0.02238c0.46622,-0.07215 0.9733,-0.19823 1.52126,-0.37823c0.54796,-0.18 1.11657,-0.38331 1.70585,-0.60991c0.66165,-0.24566 1.34616,-0.47799 2.05352,-0.69699c0.70737,-0.219 1.42735,-0.35053 2.15994,-0.39459c0.73259,-0.04406 1.45026,0.03042 2.15299,0.22343c0.70274,0.19301 1.3803,0.57871 2.03269,1.15708z" data-paper-data="{&quot;glyphName&quot;:&quot;S&quot;,&quot;glyphIndex&quot;:2,&quot;lastGlyphOfWord&quot;:true,&quot;word&quot;:1}"></path>
				<path d="M233.95213,130.0151c0.8505,0.28335 1.54769,0.7079 2.09158,1.27364c0.54388,0.56574 0.99145,1.2476 1.3427,2.04556c0.41816,0.94995 0.66038,1.88663 0.72664,2.81004c0.06627,0.92341 -0.11486,1.77427 -0.54338,2.5526c-0.4308,0.82469 -1.07783,1.55744 -1.94111,2.19828c-0.86328,0.64083 -2.10237,1.31668 -3.71729,2.02756l-1.02595,0.45161l3.24911,7.38113l-2.73586,1.2043l-8.37993,-19.03705l4.50277,-1.98208c0.72196,-0.3178 1.38048,-0.57365 1.97554,-0.76755c0.59506,-0.1939 1.14301,-0.32737 1.64385,-0.40041c0.50084,-0.07304 0.98041,-0.09136 1.4387,-0.05495c0.4583,0.03641 0.91584,0.13552 1.37264,0.29733zM234.72636,138.11142c0.2948,-0.51534 0.43475,-1.04756 0.41984,-1.59667c-0.01491,-0.54911 -0.16872,-1.15615 -0.46143,-1.82111c-0.26762,-0.60797 -0.58938,-1.10706 -0.96527,-1.49727c-0.37589,-0.39021 -0.77855,-0.6609 -1.20798,-0.81207c-0.57461,-0.22335 -1.20942,-0.26144 -1.90443,-0.11427c-0.69501,0.14717 -1.49849,0.42148 -2.41045,0.82291l-1.53892,0.67742l3.22402,7.32413l1.08295,-0.4767c1.15894,-0.51016 2.01465,-0.9492 2.56712,-1.31714c0.55247,-0.36794 0.95066,-0.76435 1.19455,-1.18924z" data-paper-data="{&quot;glyphName&quot;:&quot;P&quot;,&quot;glyphIndex&quot;:3,&quot;firstGlyphOfWord&quot;:true,&quot;word&quot;:2}"></path>
				<path d="M262.92938,123.00207c0.74295,0.50166 1.30027,1.09808 1.67195,1.78926c0.37168,0.69118 0.61936,1.46828 0.74305,2.33131c0.14725,1.02742 0.12861,1.99473 -0.05592,2.90193c-0.18453,0.90721 -0.58784,1.678 -1.20991,2.31239c-0.58392,0.60795 -1.27065,1.08384 -2.06019,1.42768l6.78929,7.64578l-3.32883,0.4771l-6.2651,-7.28053c-0.26418,0.05883 -0.54011,0.10887 -0.82779,0.1501c-0.28768,0.04123 -0.58563,0.08393 -0.89385,0.12811l-1.10961,0.15903l1.14415,7.98303l-2.95896,0.42409l-2.95094,-20.58943l4.86995,-0.69798c0.78084,-0.11191 1.4839,-0.18122 2.10918,-0.20793c0.62529,-0.02671 1.18894,-0.00788 1.69097,0.05647c0.50203,0.06436 0.96885,0.1757 1.40047,0.33403c0.43162,0.15833 0.84564,0.37685 1.24209,0.65555zM261.4975,131.00829c0.42255,-0.41706 0.70048,-0.89203 0.83381,-1.42491c0.13333,-0.53288 0.14846,-1.15892 0.04538,-1.87811c-0.09424,-0.65755 -0.26991,-1.22478 -0.527,-1.70171c-0.25709,-0.47693 -0.57211,-0.84594 -0.94506,-1.10705c-0.49336,-0.36967 -1.09453,-0.57709 -1.80352,-0.62227c-0.70898,-0.04518 -1.55664,0.00291 -2.54296,0.14427l-1.66441,0.23855l1.13532,7.92138l1.17125,-0.16787c1.25345,-0.17965 2.19571,-0.37236 2.82678,-0.57815c0.63107,-0.20578 1.12121,-0.48049 1.47039,-0.82413z" data-paper-data="{&quot;glyphName&quot;:&quot;R&quot;,&quot;glyphIndex&quot;:4,&quot;word&quot;:2}"></path>
				<path d="M289.49283,121.26103c1.48272,0.18802 2.69525,0.65042 3.63759,1.38719c0.94234,0.73677 1.66422,1.64437 2.16567,2.7228c0.50144,1.07843 0.80956,2.27881 0.92436,3.60115c0.1148,1.32234 0.08602,2.66309 -0.08634,4.02226c-0.17235,1.35916 -0.48364,2.65886 -0.93386,3.89909c-0.45022,1.24023 -1.0585,2.32441 -1.82486,3.25253c-0.76636,0.92812 -1.70289,1.63065 -2.80959,2.10758c-1.10671,0.47693 -2.40142,0.62139 -3.88415,0.43337c-1.46213,-0.18541 -2.65921,-0.64585 -3.59125,-1.38132c-0.93204,-0.73547 -1.64878,-1.64241 -2.15022,-2.72084c-0.50144,-1.07843 -0.80956,-2.27881 -0.92436,-3.60115c-0.1148,-1.32234 -0.08602,-2.66309 0.08634,-4.02226c0.17235,-1.35916 0.48429,-2.66401 0.93581,-3.91454c0.45152,-1.25053 1.05981,-2.3347 1.82486,-3.25253c0.76505,-0.91782 1.69578,-1.61586 2.79219,-2.0941c1.09641,-0.47824 2.37568,-0.62465 3.83781,-0.43924zM287.0764,140.06917c0.90611,0.1149 1.70063,-0.00405 2.38357,-0.35686c0.68294,-0.35281 1.27155,-0.86929 1.76582,-1.54943c0.49428,-0.68014 0.89611,-1.49755 1.20549,-2.45224c0.30938,-0.95468 0.53458,-1.98805 0.6756,-3.10009c0.14102,-1.11204 0.18153,-2.17406 0.12154,-3.18604c-0.05999,-1.01199 -0.24442,-1.90897 -0.55329,-2.69096c-0.30887,-0.78199 -0.75058,-1.42389 -1.32514,-1.9257c-0.57456,-0.50181 -1.3149,-0.81017 -2.22101,-0.92507c-0.90611,-0.1149 -1.69998,-0.0011 -2.38161,0.34142c-0.68163,0.34252 -1.26959,0.85384 -1.76386,1.53399c-0.49428,0.68014 -0.89676,1.5027 -1.20745,2.46768c-0.31069,0.96498 -0.53654,2.00349 -0.67756,3.11553c-0.14102,1.11204 -0.18088,2.16891 -0.11958,3.1706c0.0613,1.00169 0.24638,1.89353 0.55524,2.67552c0.30887,0.78199 0.74993,1.42904 1.32319,1.94115c0.57326,0.51211 1.31294,0.82562 2.21905,0.94052z" data-paper-data="{&quot;glyphName&quot;:&quot;O&quot;,&quot;glyphIndex&quot;:5,&quot;word&quot;:2}"></path>
				<path d="M301.86856,148.66435c0.91544,-0.16105 1.68926,-0.38862 2.32147,-0.68271c0.6322,-0.29409 1.1723,-0.67024 1.6203,-1.12845c0.448,-0.45821 0.83008,-0.99472 1.14626,-1.60955c0.31618,-0.61483 0.61942,-1.33329 0.90973,-2.15539l5.62989,-15.94279l2.81862,0.99534l-5.60915,15.88407c-0.33178,0.93954 -0.72976,1.81717 -1.19394,2.63291c-0.46418,0.81573 -1.02995,1.52955 -1.69733,2.14144c-0.66738,0.61189 -1.4493,1.11178 -2.34578,1.49967c-0.89648,0.38789 -1.94637,0.63355 -3.14966,0.73698z" data-paper-data="{&quot;glyphName&quot;:&quot;J&quot;,&quot;glyphIndex&quot;:6,&quot;word&quot;:2}"></path>
				<path d="M332.06029,157.42687l-1.36749,2.11923l-9.94205,-6.4154l11.2776,-17.47708l9.70658,6.26346l-1.36749,2.11923l-7.1949,-4.64272l-3.41029,5.28498l6.77629,4.3726l-1.33373,2.0669l-6.77629,-4.3726l-3.79859,5.88674z" data-paper-data="{&quot;glyphName&quot;:&quot;E&quot;,&quot;glyphIndex&quot;:7,&quot;word&quot;:2}"></path>
				<path d="M348.08692,175.92114c-0.67508,-0.44878 -1.29148,-0.89557 -1.8492,-1.34037c-0.55772,-0.4448 -1.09169,-0.94021 -1.60193,-1.48621c-0.83621,-0.89484 -1.50124,-1.85731 -1.99507,-2.88742c-0.49384,-1.03011 -0.71,-2.12792 -0.6485,-3.29344c0.0615,-1.16551 0.43356,-2.39394 1.11617,-3.68529c0.68261,-1.29135 1.78983,-2.65276 3.32168,-4.08424c1.42568,-1.33227 2.78429,-2.31066 4.07584,-2.93516c1.29155,-0.62451 2.5107,-0.95406 3.65744,-0.98865c1.14674,-0.0346 2.21827,0.19996 3.2146,0.70368c0.99633,0.50372 1.92677,1.21816 2.79133,2.14334c0.51023,0.546 0.98205,1.14211 1.41545,1.78832c0.4334,0.64621 0.85724,1.35818 1.2715,2.13592l-2.08893,1.18497c-0.31903,-0.55421 -0.66789,-1.09475 -1.04659,-1.62161c-0.3787,-0.52686 -0.7523,-0.98746 -1.1208,-1.3818c-0.59527,-0.637 -1.24281,-1.13993 -1.94263,-1.50877c-0.69982,-0.36884 -1.46148,-0.53783 -2.28498,-0.50697c-0.8235,0.03086 -1.71339,0.28711 -2.66965,0.76876c-0.95626,0.48165 -2.00315,1.25397 -3.14066,2.31695c-1.19817,1.11967 -2.07467,2.17314 -2.62948,3.16039c-0.55482,0.98725 -0.86534,1.91669 -0.93158,2.78831c-0.06624,0.87162 0.07869,1.68797 0.43477,2.44905c0.35608,0.76108 0.84593,1.47529 1.46954,2.14263c0.38267,0.4095 0.7881,0.79775 1.21627,1.16473c0.42817,0.36698 0.89327,0.72787 1.39529,1.08267z" data-paper-data="{&quot;glyphName&quot;:&quot;C&quot;,&quot;glyphIndex&quot;:8,&quot;word&quot;:2}"></path>
				<path d="M369.89812,175.68431l2.32649,-1.2619l6.5767,12.12512l-2.32649,1.2619l-2.58317,-4.76246l-15.95698,8.65512l-1.41035,-2.60019l15.95698,-8.65512z" data-paper-data="{&quot;glyphName&quot;:&quot;T&quot;,&quot;glyphIndex&quot;:9,&quot;word&quot;:2}"></path>
				<path d="M372.24773,214.99079c-0.8409,0.23023 -1.64783,0.28975 -2.4208,0.17855c-0.77297,-0.1112 -1.4901,-0.3722 -2.15139,-0.78301c-0.66129,-0.4108 -1.23899,-0.96825 -1.73308,-1.67234c-0.49409,-0.70409 -0.8727,-1.53665 -1.13582,-2.49768c-0.14253,-0.52056 -0.2605,-1.06936 -0.35393,-1.6464c-0.09343,-0.57705 -0.16409,-1.14956 -0.21199,-1.71755c-0.0479,-0.56799 -0.06255,-1.11279 -0.04395,-1.63442c0.0186,-0.52163 0.06139,-0.97455 0.12837,-1.35877l2.76652,0.08191c-0.09917,0.97413 -0.13142,1.95685 -0.09675,2.94814c0.03467,0.9913 0.13697,1.79728 0.3069,2.41794c0.34535,1.26135 0.90469,2.12514 1.678,2.59136c0.77332,0.46622 1.5504,0.59244 2.33123,0.37865c0.50054,-0.13704 0.9195,-0.37551 1.25689,-0.71539c0.33739,-0.33988 0.62282,-0.75163 0.85629,-1.23523c0.23347,-0.48361 0.43137,-1.03818 0.59369,-1.66373c0.16232,-0.62555 0.30868,-1.28976 0.43907,-1.99265c0.13587,-0.68287 0.28723,-1.34846 0.45408,-1.99677c0.16685,-0.64831 0.41022,-1.253 0.73009,-1.81407c0.31987,-0.56107 0.7495,-1.05534 1.28889,-1.48281c0.53939,-0.42747 1.24956,-0.76181 2.1305,-1.00301c0.80086,-0.21927 1.5541,-0.25871 2.25973,-0.11831c0.70563,0.1404 1.35269,0.42059 1.94117,0.84056c0.58848,0.41998 1.09651,0.95883 1.5241,1.61657c0.42759,0.65773 0.75376,1.39704 0.97851,2.21791c0.23023,0.8409 0.37901,1.69872 0.44633,2.57346c0.06732,0.87474 0.05867,1.78643 -0.02596,2.73506l-2.61636,-0.12302c0.05388,-0.74651 0.05311,-1.51572 -0.00229,-2.30764c-0.05541,-0.79192 -0.1763,-1.52824 -0.36268,-2.20897c-0.27957,-1.02109 -0.72861,-1.73752 -1.34712,-2.14927c-0.61851,-0.41176 -1.33821,-0.50526 -2.15908,-0.28051c-0.40043,0.10964 -0.73203,0.31342 -0.99482,0.61135c-0.26278,0.29793 -0.49137,0.66183 -0.68575,1.09169c-0.19438,0.42986 -0.36594,0.92342 -0.51468,1.48068c-0.14874,0.55726 -0.28925,1.14455 -0.42154,1.76187c-0.15589,0.68835 -0.33544,1.38856 -0.53864,2.10063c-0.2032,0.71207 -0.48655,1.38689 -0.85004,2.02447c-0.36349,0.63758 -0.81809,1.19787 -1.3638,1.68088c-0.54571,0.48301 -1.23901,0.83963 -2.07991,1.06986z" data-paper-data="{&quot;glyphName&quot;:&quot;S&quot;,&quot;glyphIndex&quot;:10,&quot;lastGlyphOfWord&quot;:true,&quot;word&quot;:2}"></path>
			</g>
			<g data-paper-data="{&quot;isContainerElementsWrapper&quot;:true}" fill-rule="evenodd">
				<path d="M274.99975,106c-17.48575,0 -34.22574,3.38245 -50.22018,10.14746c-15.43626,6.5291 -29.10173,15.741 -40.99642,27.63569c-11.89482,11.89478 -21.10672,25.56025 -27.63569,40.99642c-6.76497,15.9944 -10.14746,32.73446 -10.14746,50.22018c0,17.48565 3.38252,34.22571 10.14755,50.22018c6.52897,15.43652 15.74084,29.1019 27.63559,40.99612c11.8947,11.89489 25.56021,21.10699 40.99652,27.63629c15.99434,6.7651 32.73436,10.14765 50.22008,10.14765c17.48565,0 34.22571,-3.38255 50.22018,-10.14765c15.43652,-6.5293 29.1019,-15.7414 40.99612,-27.63629c11.89489,-11.89423 21.10699,-25.5596 27.63629,-40.99612c6.7651,-15.99447 10.14765,-32.73453 10.14765,-50.22018c0,-17.48555 -3.38255,-34.22564 -10.14865,-50.22018c-6.52864,-15.43609 -15.74007,-29.10157 -27.6343,-40.99642c-11.89489,-11.89482 -25.5606,-21.10672 -40.99712,-27.63569c-15.99381,-6.76497 -32.73387,-10.14746 -50.22018,-10.14746zM216.79924,176.79924c-15.76671,15.76671 -23.79962,34.73689 -24.09874,56.91056h-44.11432c0.16234,-16.67065 3.47485,-32.64569 9.93753,-47.92512c6.39839,-15.12732 15.4263,-28.51973 27.08375,-40.17722c11.65757,-11.65758 25.04998,-20.68549 40.17722,-27.08375c15.67312,-6.6292 32.07814,-9.9438 49.21508,-9.9438c17.13693,0 33.54256,3.3146 49.21587,9.9438c15.127,6.39845 28.51904,15.42637 40.17614,27.08375c11.65776,11.65766 20.68587,25.05006 27.08432,40.17722c6.46321,15.27917 9.77503,31.25418 9.93743,47.92512h-44.11465c-0.2989,-22.1735 -8.33134,-41.14368 -24.09831,-56.91056c-16.07152,-16.07161 -35.47179,-24.10742 -58.20081,-24.10742c-22.72869,0 -42.12886,8.03581 -58.20051,24.10742zM274.99975,155.27182c22.01631,0 40.80815,7.7839 56.37552,23.3517c15.56804,15.56784 23.35206,34.35991 23.35206,56.37622c0,22.01631 -7.78369,40.80848 -23.35106,56.37652c-15.56804,15.56738 -34.36021,23.35106 -56.37652,23.35106c-22.01624,0 -40.80828,-7.78369 -56.37612,-23.35106c-15.56763,-15.56804 -23.35157,-34.35988 -23.35181,-56.37552l0,-0.001c0,-22.01624 7.7839,-40.80832 23.3517,-56.37622c15.56791,-15.5678 34.35998,-23.3517 56.37622,-23.3517zM165.33484,269.47786l2.43902,-0.64164l-1.98161,-7.52829l17.67555,-4.65288l-0.761,-2.89056l-20.11457,5.29471zM382.06871,257.69722c0.84091,0.23015 1.56524,0.59083 2.174,1.08003c0.60776,0.4892 1.09198,1.07903 1.45166,1.76949c0.36067,0.69046 0.57389,1.46461 0.63965,2.32245c0.06675,0.85685 -0.03188,1.7665 -0.29491,2.72696c-0.14248,0.52108 -0.31982,1.05312 -0.53403,1.59712c-0.21322,0.54499 -0.44436,1.07305 -0.69245,1.58616c-0.24809,0.51311 -0.51311,0.98936 -0.79507,1.42874c-0.28097,0.43938 -0.54898,0.80803 -0.80205,1.10394l-2.33939,-1.47955c0.58186,-0.7881 1.10992,-1.61705 1.58517,-2.48784c0.47525,-0.8708 0.79806,-1.61605 0.96744,-2.23677c0.34573,-1.26136 0.30488,-2.28957 -0.12355,-3.08465c-0.42842,-0.79507 -1.0322,-1.29922 -1.81333,-1.51343c-0.50016,-0.13749 -0.98238,-0.14546 -1.44568,-0.02491c-0.46329,0.12056 -0.91862,0.32979 -1.36597,0.62669c-0.44735,0.2979 -0.90069,0.67352 -1.359,1.12984c-0.45831,0.45532 -0.9226,0.95249 -1.39287,1.49051c-0.46429,0.51909 -0.93356,1.01427 -1.40782,1.48753c-0.47326,0.47226 -0.99135,0.8688 -1.55229,1.18863c-0.56094,0.31982 -1.18265,0.52606 -1.86414,0.61972c-0.68249,0.09266 -1.46361,0.01893 -2.34437,-0.22218c-0.80105,-0.21919 -1.46959,-0.56891 -2.00462,-1.04914c-0.53603,-0.48023 -0.95017,-1.05113 -1.24243,-1.7127c-0.29292,-0.66057 -0.45532,-1.38291 -0.4882,-2.16702c-0.03288,-0.78411 0.06277,-1.58616 0.28794,-2.40714c0.23015,-0.84091 0.53902,-1.65491 0.92659,-2.44201c0.38757,-0.7871 0.85984,-1.56723 1.41579,-2.34029l2.18894,1.43861c-0.42743,0.61474 -0.81799,1.2773 -1.17368,1.98669c-0.35569,0.71039 -0.62669,1.40483 -0.81301,2.08632c-0.27997,1.02025 -0.25805,1.86613 0.06377,2.53567c0.32281,0.66954 0.89471,1.11589 1.71569,1.34106c0.40053,0.1096 0.7891,0.10262 1.16671,-0.01993c0.37861,-0.12255 0.7602,-0.31883 1.14678,-0.58983c0.38658,-0.271 0.78511,-0.60776 1.1966,-1.01227c0.41248,-0.40351 0.83194,-0.83692 1.26036,-1.30121c0.48521,-0.51311 0.99633,-1.02423 1.53435,-1.53336c0.53702,-0.50913 1.12486,-0.94552 1.76251,-1.30918c0.63765,-0.36267 1.31416,-0.61374 2.02953,-0.75124c0.71537,-0.13749 1.4945,-0.09166 2.33541,0.13849zM354.29692,285.8526l2.32644,1.26235l2.58349,-4.76247l15.95628,8.65515l1.41081,-2.60043l-15.95727,-8.65515l2.58349,-4.76247l-2.32644,-1.26136zM175.06792,292.10758c0.41816,0.57787 0.89232,1.17368 1.42256,1.78742l1.88397,-1.43871c-0.38867,-0.47625 -0.74008,-0.94851 -1.05432,-1.41679c-0.31424,-0.46828 -0.60089,-0.9505 -0.85984,-1.44767c-0.42205,-0.81002 -0.70271,-1.629 -0.8419,-2.45795c-0.13919,-0.82895 -0.06018,-1.65391 0.23713,-2.47589c0.29731,-0.82197 0.84539,-1.63498 1.64445,-2.43703c0.79896,-0.80304 1.92561,-1.58317 3.37996,-2.34039c1.38065,-0.71935 2.59615,-1.18298 3.64648,-1.39088c1.05033,-0.2079 1.97633,-0.21654 2.778,-0.0259c0.80168,0.19063 1.49024,0.55761 2.06568,1.10095c0.57545,0.54201 1.06461,1.20058 1.4675,1.97374c0.24941,0.47824 0.48598,1.02224 0.70971,1.631c0.22374,0.60976 0.41506,1.2235 0.57397,1.84322l2.33001,-0.58186c-0.1908,-0.86083 -0.40843,-1.66056 -0.65289,-2.39917c-0.24447,-0.73828 -0.53937,-1.43871 -0.8847,-2.10226c-0.58515,-1.12287 -1.29021,-2.06042 -2.11521,-2.81265c-0.82499,-0.75223 -1.79454,-1.26534 -2.90864,-1.53834c-1.1141,-0.27399 -2.37697,-0.28296 -3.78866,-0.0279c-1.4116,0.25573 -2.98262,0.8346 -4.71305,1.73661c-1.85929,0.9691 -3.29072,1.98403 -4.2943,3.04479c-1.00361,1.06209 -1.69108,2.14511 -2.06261,3.25203c-0.37143,1.10593 -0.45722,2.22182 -0.25735,3.34668c0.19986,1.12486 0.58276,2.22979 1.14877,3.31679c0.34533,0.66256 0.72702,1.28228 1.14529,1.86015zM363.30676,308.30099c-0.40252,0.70441 -0.80603,1.34904 -1.21254,1.93588c-0.40551,0.58684 -0.86382,1.15276 -1.37394,1.69875c-0.83592,0.89471 -1.75155,1.62303 -2.74589,2.18596c-0.99434,0.56193 -2.07536,0.85186 -3.24207,0.8698c-1.16671,0.01694 -2.4181,-0.271 -3.75219,-0.86482c-1.33509,-0.59282 -2.76781,-1.60609 -4.30017,-3.03782c-1.42575,-1.3321 -2.49382,-2.62135 -3.20421,-3.86777c-0.71039,-1.24641 -1.12087,-2.44002 -1.23346,-3.58182c-0.11259,-1.1418 0.04982,-2.2268 0.48422,-3.25502c0.4354,-1.02822 1.08501,-2.00462 1.94982,-2.93022c0.51012,-0.54599 1.07305,-1.05711 1.68878,-1.53236c0.61474,-0.47625 1.29723,-0.94751 2.04448,-1.4138l1.32413,2.00462c-0.53204,0.35569 -1.04715,0.74028 -1.54731,1.15375c-0.50016,0.41348 -0.93456,0.81699 -1.3032,1.21154c-0.59481,0.63666 -1.05312,1.31715 -1.37394,2.04049c-0.31982,0.72334 -0.43739,1.4945 -0.35071,2.31349c0.08668,0.81998 0.40252,1.69078 0.94751,2.61139c0.54499,0.92161 1.3869,1.91396 2.52371,2.97704c1.19859,1.11988 2.3085,1.92292 3.33174,2.41013c1.02224,0.48621 1.97075,0.7333 2.84453,0.74028c0.87478,0.00697 1.67882,-0.19229 2.41412,-0.59979c0.73529,-0.4065 1.41479,-0.94353 2.0385,-1.61107c0.38259,-0.40949 0.74227,-0.83991 1.08003,-1.29224c0.33676,-0.45134 0.66555,-0.94054 0.98537,-1.46461zM197.47089,312.25444c-0.65239,0.57787 -1.34981,0.98803 -2.09226,1.23047c-0.74245,0.24211 -1.50107,0.3248 -2.27585,0.24908c-0.77479,-0.07572 -1.53943,-0.32082 -2.29396,-0.7333c-0.75452,-0.41348 -1.46228,-0.99235 -2.12327,-1.7386c-0.35804,-0.40351 -0.70655,-0.84389 -1.04553,-1.32014c-0.33898,-0.47625 -0.65554,-0.95847 -0.94968,-1.44668c-0.29414,-0.4882 -0.54821,-0.97043 -0.76221,-1.44568c-0.21399,-0.47625 -0.37592,-0.90168 -0.48575,-1.2763l2.51752,-1.14977c0.34185,0.91796 0.74751,1.81366 1.21698,2.68711c0.46947,0.87378 0.91765,1.55129 1.34454,2.03352c0.86756,0.9784 1.75122,1.50546 2.65098,1.58118c0.89977,0.07639 1.65255,-0.15377 2.25834,-0.69046c0.38833,-0.34473 0.65864,-0.74426 0.81094,-1.19759c0.1523,-0.45433 0.22621,-0.94951 0.22175,-1.48653c-0.00446,-0.53702 -0.07222,-1.12187 -0.20327,-1.75554c-0.13105,-0.63267 -0.29352,-1.29324 -0.48741,-1.98071c-0.18013,-0.67252 -0.33871,-1.33708 -0.47576,-1.99167c-0.13705,-0.65559 -0.18619,-1.30553 -0.14742,-1.94982c0.03877,-0.64463 0.20553,-1.2783 0.50027,-1.90001c0.29474,-0.62171 0.78384,-1.23645 1.46729,-1.84222c0.62131,-0.55097 1.27946,-0.91862 1.97443,-1.10493c0.69497,-0.18665 1.39922,-0.22152 2.11275,-0.10461c0.71354,0.11624 1.4075,0.37495 2.08187,0.77614c0.67438,0.40053 1.29386,0.91928 1.85846,1.55627c0.57834,0.65227 1.09113,1.35568 1.53835,2.11023c0.44725,0.75522 0.8427,1.5762 1.18623,2.46493l-2.40096,1.04715c-0.28182,-0.69345 -0.62268,-1.38324 -1.02258,-2.06938c-0.39991,-0.68548 -0.83396,-1.29224 -1.30216,-1.8203c-0.70231,-0.79208 -1.42188,-1.23645 -2.15872,-1.3321c-0.73683,-0.09565 -1.42368,0.13882 -2.06054,0.70341c-0.31066,0.27499 -0.51795,0.60477 -0.62189,0.98836c-0.10394,0.38259 -0.14803,0.81002 -0.13227,1.28228c0.01576,0.47127 0.08016,0.98936 0.19319,1.55528c0.11303,0.56592 0.24672,1.15475 0.40107,1.7665c0.16459,0.68614 0.3132,1.39354 0.44585,2.12219c0.13265,0.72832 0.17694,1.45963 0.13288,2.19193c-0.04406,0.7323 -0.20401,1.43572 -0.47985,2.11023c-0.27584,0.67452 -0.73996,1.30121 -1.39235,1.88008zM342.18948,328.27049l-1.36697,-2.1192l-7.43065,4.79436l-3.79802,-5.88634l6.77606,-4.37291l-1.33409,-2.0664l-6.77606,4.37191l-3.41045,-5.28455l7.19452,-4.64291l-1.36697,-2.1192l-9.70628,6.26395l11.2775,17.47668zM241.2373,326.91249c0.04982,-0.78312 -0.1079,-1.58417 -0.47336,-2.40316c-0.1892,-0.44536 -0.42504,-0.84987 -0.7078,-1.21254c-0.28266,-0.36267 -0.62002,-0.70441 -1.01217,-1.02423c-0.39206,-0.31982 -0.86053,-0.63367 -1.40543,-0.94153c-0.54489,-0.30787 -1.17836,-0.62072 -1.90031,-0.93855l-4.50273,-1.9827l-8.37996,19.03694l2.73583,1.20457l3.24914,-7.38084l1.02592,0.45134c1.61496,0.71138 2.95024,1.1687 4.00586,1.37195c1.05562,0.20425 2.03302,0.18631 2.93211,-0.05281c0.86342,-0.20923 1.61326,-0.65061 2.24952,-1.32313c0.63626,-0.67252 1.16342,-1.48354 1.58158,-2.43404c0.35121,-0.79806 0.55187,-1.58816 0.60179,-2.37127zM236.77702,329.77994c-0.39485,0.3816 -0.88185,0.63765 -1.46102,0.76917c-0.47814,0.10661 -1.03937,0.0807 -1.6838,-0.07871c-0.64453,-0.15842 -1.54621,-0.49318 -2.70514,-1.00331l-1.08291,-0.47625l3.22403,-7.32405l1.53884,0.67651c0.91194,0.40152 1.6569,0.80902 2.23488,1.2225c0.57787,0.41348 0.9785,0.90666 1.20188,1.48155c0.17854,0.41846 0.25088,0.89869 0.217,1.4397c-0.03397,0.54001 -0.18472,1.1149 -0.45234,1.72266c-0.29272,0.66455 -0.63646,1.18863 -1.0314,1.57022zM311.16864,347.67109c0.61175,-0.69943 1.07106,-1.36298 1.37793,-1.98868c0.30787,-0.6257 0.49119,-1.25737 0.55296,-1.89602c0.06078,-0.63765 0.02092,-1.29523 -0.11956,-1.97174c-0.13949,-0.67751 -0.35469,-1.42675 -0.64463,-2.24872l-5.63028,-15.94332l2.81863,-0.99534l5.60936,15.88454c0.33178,0.93954 0.57289,1.87211 0.72433,2.7987c0.15045,0.92659 0.15842,1.83724 0.02391,2.73195c-0.1355,0.8957 -0.43042,1.77547 -0.88474,2.64028c-0.45333,0.86482 -1.11689,1.71569 -1.98768,2.55161zM265.32814,330.26117c0.57216,0.69013 0.93951,1.41911 1.10204,2.18695c0.1626,0.76718 0.18203,1.58317 0.05839,2.446c-0.14726,1.02722 -0.43689,1.94982 -0.8688,2.76881c-0.43191,0.81899 -1.03549,1.44568 -1.81064,1.88008c-0.73118,0.41912 -1.52396,0.68282 -2.37835,0.79109l4.36852,9.24498l-3.32885,-0.47724l-3.968,-8.74681c-0.27001,-0.01793 -0.54888,-0.04683 -0.83662,-0.08867l-0.89381,-0.12753l-1.10962,-0.15941l-1.14419,7.98262l-2.95891,-0.42344l2.95094,-20.59022l4.86998,0.69843c0.78083,0.11159 1.47497,0.24311 2.08264,0.39256c0.60756,0.15045 1.14329,0.3268 1.60699,0.52905c0.46379,0.20325 0.88056,0.44138 1.2503,0.71437c0.36974,0.273 0.7058,0.5988 1.00799,0.9784zM290.69399,328.13798c-1.09646,-0.47824 -2.38602,-0.6237 -3.86876,-0.4354c-1.46212,0.18532 -2.66429,0.64662 -3.60663,1.38291c-0.94243,0.73729 -1.66946,1.64495 -2.18117,2.72497c-0.51172,1.08003 -0.83014,2.2816 -0.95528,3.60473c-0.12504,1.32413 -0.10143,2.66519 0.07094,4.02419c0.17237,1.359 0.47914,2.66519 0.92041,3.91659c0.44118,1.25239 1.03918,2.3374 1.7939,3.25701c0.75482,0.91862 1.67523,1.61805 2.76134,2.09728c1.0861,0.48023 2.36021,0.62669 3.82233,0.44138c1.48274,-0.18831 2.70046,-0.65061 3.65306,-1.38889c0.95259,-0.73828 1.6842,-1.65192 2.19492,-2.74191c0.51012,-1.08999 0.82829,-2.2919 0.95449,-3.60573c0.12653,-1.31317 0.10362,-2.64925 -0.06875,-4.00825c-0.17237,-1.359 -0.47924,-2.66519 -0.92061,-3.91659c-0.44091,-1.25206 -1.03874,-2.33773 -1.7935,-3.25701c-0.75472,-0.91862 -1.68032,-1.61705 -2.77668,-2.09529zM261.70508,337.54237c0.52268,-0.28097 0.9229,-0.65957 1.20048,-1.13283c0.27768,-0.47425 0.46798,-1.07106 0.5711,-1.79041c0.09425,-0.65758 0.08499,-1.25139 -0.0278,-1.78045c-0.11278,-0.53005 -0.31145,-0.97342 -0.59611,-1.32811c-0.36964,-0.49318 -0.88833,-0.86183 -1.55607,-1.10394c-0.66774,-0.24311 -1.4948,-0.4344 -2.48117,-0.57588l-1.66437,-0.23812l-1.13532,7.92085l1.17129,0.16838c1.25339,0.17934 2.21186,0.25905 2.87532,0.23912c0.66349,-0.02059 1.21104,-0.14679 1.64265,-0.37861zM291.399,345.5778c-0.57329,0.51212 -1.31297,0.82596 -2.21913,0.94054c-0.90607,0.11458 -1.70054,-0.00399 -2.38353,-0.35669c-0.68299,-0.3527 -1.27152,-0.8698 -1.7658,-1.5493c-0.49428,-0.6805 -0.8961,-1.49749 -1.20556,-2.45297c-0.30936,-0.95449 -0.53453,-1.98768 -0.67551,-3.09959c-0.14108,-1.11191 -0.18153,-2.174 -0.12155,-3.18627c0.05998,-1.01227 0.2444,-1.90897 0.55326,-2.6911c0.30886,-0.78212 0.75054,-1.42376 1.32512,-1.92591c0.57459,-0.50116 1.31496,-0.81002 2.22103,-0.9246c0.90613,-0.11491 1.70001,-0.001 2.38164,0.34174c0.68159,0.34174 1.26953,0.85386 1.76381,1.53336c0.49428,0.6805 0.8968,1.50347 1.20746,2.46792c0.31076,0.96545 0.53653,2.00363 0.67761,3.11553c0.14098,1.11191 0.18083,2.16902 0.11956,3.17033c-0.06127,1.00231 -0.24639,1.89403 -0.55526,2.67615c-0.30886,0.78212 -0.74994,1.42874 -1.32313,1.94086z" data-paper-data="{&quot;isBaseLogoContainer&quot;:true}"></path>
			</g>
		</g>
	</g>
</svg>